TITLE ""
FILE "LR_black_phrase_E_04.mp3" MP3
  TRACK 01 AUDIO
    TITLE "LR_black_phrase_E_04_001"
    INDEX 01 00:00:00
  TRACK 02 AUDIO
    TITLE "LR_black_phrase_E_04_002"
    INDEX 01 00:00:12
  TRACK 03 AUDIO
    TITLE "LR_black_phrase_E_04_003"
    INDEX 01 00:01:22
  TRACK 04 AUDIO
    TITLE "LR_black_phrase_E_04_004"
    INDEX 01 00:01:51
  TRACK 05 AUDIO
    TITLE "LR_black_phrase_E_04_005"
    INDEX 01 00:04:24
  TRACK 06 AUDIO
    TITLE "LR_black_phrase_E_04_006"
    INDEX 01 00:05:06
  TRACK 07 AUDIO
    TITLE "LR_black_phrase_E_04_007"
    INDEX 01 00:07:53
  TRACK 08 AUDIO
    TITLE "LR_black_phrase_E_04_008"
    INDEX 01 00:08:59
  TRACK 09 AUDIO
    TITLE "LR_black_phrase_E_04_009"
    INDEX 01 00:10:05
  TRACK 10 AUDIO
    TITLE "LR_black_phrase_E_04_010"
    INDEX 01 00:10:32
  TRACK 11 AUDIO
    TITLE "LR_black_phrase_E_04_011"
    INDEX 01 00:12:62
  TRACK 12 AUDIO
    TITLE "LR_black_phrase_E_04_012"
    INDEX 01 00:13:42
  TRACK 13 AUDIO
    TITLE "LR_black_phrase_E_04_013"
    INDEX 01 00:15:73
  TRACK 14 AUDIO
    TITLE "LR_black_phrase_E_04_014"
    INDEX 01 00:17:05
  TRACK 15 AUDIO
    TITLE "LR_black_phrase_E_04_015"
    INDEX 01 00:18:22
  TRACK 16 AUDIO
    TITLE "LR_black_phrase_E_04_016"
    INDEX 01 00:18:53
  TRACK 17 AUDIO
    TITLE "LR_black_phrase_E_04_017"
    INDEX 01 00:21:32
  TRACK 18 AUDIO
    TITLE "LR_black_phrase_E_04_018"
    INDEX 01 00:22:12
  TRACK 19 AUDIO
    TITLE "LR_black_phrase_E_04_019"
    INDEX 01 00:24:68
  TRACK 20 AUDIO
    TITLE "LR_black_phrase_E_04_020"
    INDEX 01 00:25:73
  TRACK 21 AUDIO
    TITLE "LR_black_phrase_E_04_021"
    INDEX 01 00:27:21
  TRACK 22 AUDIO
    TITLE "LR_black_phrase_E_04_022"
    INDEX 01 00:27:50
  TRACK 23 AUDIO
    TITLE "LR_black_phrase_E_04_023"
    INDEX 01 00:30:06
  TRACK 24 AUDIO
    TITLE "LR_black_phrase_E_04_024"
    INDEX 01 00:30:60
  TRACK 25 AUDIO
    TITLE "LR_black_phrase_E_04_025"
    INDEX 01 00:33:16
  TRACK 26 AUDIO
    TITLE "LR_black_phrase_E_04_026"
    INDEX 01 00:34:19
  TRACK 27 AUDIO
    TITLE "LR_black_phrase_E_04_027"
    INDEX 01 00:35:52
  TRACK 28 AUDIO
    TITLE "LR_black_phrase_E_04_028"
    INDEX 01 00:36:08
  TRACK 29 AUDIO
    TITLE "LR_black_phrase_E_04_029"
    INDEX 01 00:38:58
  TRACK 30 AUDIO
    TITLE "LR_black_phrase_E_04_030"
    INDEX 01 00:39:38
  TRACK 31 AUDIO
    TITLE "LR_black_phrase_E_04_031"
    INDEX 01 00:42:13
  TRACK 32 AUDIO
    TITLE "LR_black_phrase_E_04_032"
    INDEX 01 00:43:18
  TRACK 33 AUDIO
    TITLE "LR_black_phrase_E_04_033"
    INDEX 01 00:44:41
  TRACK 34 AUDIO
    TITLE "LR_black_phrase_E_04_034"
    INDEX 01 00:44:72
  TRACK 35 AUDIO
    TITLE "LR_black_phrase_E_04_035"
    INDEX 01 00:47:06
  TRACK 36 AUDIO
    TITLE "LR_black_phrase_E_04_036"
    INDEX 01 00:47:59
  TRACK 37 AUDIO
    TITLE "LR_black_phrase_E_04_037"
    INDEX 01 00:49:70
  TRACK 38 AUDIO
    TITLE "LR_black_phrase_E_04_038"
    INDEX 01 00:51:00
  TRACK 39 AUDIO
    TITLE "LR_black_phrase_E_04_039"
    INDEX 01 00:52:21
  TRACK 40 AUDIO
    TITLE "LR_black_phrase_E_04_040"
    INDEX 01 00:52:52
  TRACK 41 AUDIO
    TITLE "LR_black_phrase_E_04_041"
    INDEX 01 00:54:57
  TRACK 42 AUDIO
    TITLE "LR_black_phrase_E_04_042"
    INDEX 01 00:55:39
  TRACK 43 AUDIO
    TITLE "LR_black_phrase_E_04_043"
    INDEX 01 00:57:46
  TRACK 44 AUDIO
    TITLE "LR_black_phrase_E_04_044"
    INDEX 01 00:58:49
  TRACK 45 AUDIO
    TITLE "LR_black_phrase_E_04_045"
    INDEX 01 01:00:09
  TRACK 46 AUDIO
    TITLE "LR_black_phrase_E_04_046"
    INDEX 01 01:00:38
  TRACK 47 AUDIO
    TITLE "LR_black_phrase_E_04_047"
    INDEX 01 01:02:41
  TRACK 48 AUDIO
    TITLE "LR_black_phrase_E_04_048"
    INDEX 01 01:03:17
  TRACK 49 AUDIO
    TITLE "LR_black_phrase_E_04_049"
    INDEX 01 01:05:22
  TRACK 50 AUDIO
    TITLE "LR_black_phrase_E_04_050"
    INDEX 01 01:06:23
  TRACK 51 AUDIO
    TITLE "LR_black_phrase_E_04_051"
    INDEX 01 01:07:34
  TRACK 52 AUDIO
    TITLE "LR_black_phrase_E_04_052"
    INDEX 01 01:07:65
  TRACK 53 AUDIO
    TITLE "LR_black_phrase_E_04_053"
    INDEX 01 01:10:54
  TRACK 54 AUDIO
    TITLE "LR_black_phrase_E_04_054"
    INDEX 01 01:11:32
  TRACK 55 AUDIO
    TITLE "LR_black_phrase_E_04_055"
    INDEX 01 01:14:24
  TRACK 56 AUDIO
    TITLE "LR_black_phrase_E_04_056"
    INDEX 01 01:15:28
  TRACK 57 AUDIO
    TITLE "LR_black_phrase_E_04_057"
    INDEX 01 01:16:39
  TRACK 58 AUDIO
    TITLE "LR_black_phrase_E_04_058"
    INDEX 01 01:16:66
  TRACK 59 AUDIO
    TITLE "LR_black_phrase_E_04_059"
    INDEX 01 01:19:06
  TRACK 60 AUDIO
    TITLE "LR_black_phrase_E_04_060"
    INDEX 01 01:19:59
  TRACK 61 AUDIO
    TITLE "LR_black_phrase_E_04_061"
    INDEX 01 01:21:73
  TRACK 62 AUDIO
    TITLE "LR_black_phrase_E_04_062"
    INDEX 01 01:22:69
  TRACK 63 AUDIO
    TITLE "LR_black_phrase_E_04_063"
    INDEX 01 01:24:38
  TRACK 64 AUDIO
    TITLE "LR_black_phrase_E_04_064"
    INDEX 01 01:24:58
  TRACK 65 AUDIO
    TITLE "LR_black_phrase_E_04_065"
    INDEX 01 01:27:33
  TRACK 66 AUDIO
    TITLE "LR_black_phrase_E_04_066"
    INDEX 01 01:28:03
  TRACK 67 AUDIO
    TITLE "LR_black_phrase_E_04_067"
    INDEX 01 01:30:53
  TRACK 68 AUDIO
    TITLE "LR_black_phrase_E_04_068"
    INDEX 01 01:31:46
  TRACK 69 AUDIO
    TITLE "LR_black_phrase_E_04_069"
    INDEX 01 01:32:63
  TRACK 70 AUDIO
    TITLE "LR_black_phrase_E_04_070"
    INDEX 01 01:33:10
  TRACK 71 AUDIO
    TITLE "LR_black_phrase_E_04_071"
    INDEX 01 01:35:56
  TRACK 72 AUDIO
    TITLE "LR_black_phrase_E_04_072"
    INDEX 01 01:36:28
  TRACK 73 AUDIO
    TITLE "LR_black_phrase_E_04_073"
    INDEX 01 01:38:74
  TRACK 74 AUDIO
    TITLE "LR_black_phrase_E_04_074"
    INDEX 01 01:39:73
  TRACK 75 AUDIO
    TITLE "LR_black_phrase_E_04_075"
    INDEX 01 01:41:19
  TRACK 76 AUDIO
    TITLE "LR_black_phrase_E_04_076"
    INDEX 01 01:41:45
  TRACK 77 AUDIO
    TITLE "LR_black_phrase_E_04_077"
    INDEX 01 01:43:44
  TRACK 78 AUDIO
    TITLE "LR_black_phrase_E_04_078"
    INDEX 01 01:44:16
  TRACK 79 AUDIO
    TITLE "LR_black_phrase_E_04_079"
    INDEX 01 01:46:15
  TRACK 80 AUDIO
    TITLE "LR_black_phrase_E_04_080"
    INDEX 01 01:47:10
  TRACK 81 AUDIO
    TITLE "LR_black_phrase_E_04_081"
    INDEX 01 01:48:10
  TRACK 82 AUDIO
    TITLE "LR_black_phrase_E_04_082"
    INDEX 01 01:48:39
  TRACK 83 AUDIO
    TITLE "LR_black_phrase_E_04_083"
    INDEX 01 01:50:63
  TRACK 84 AUDIO
    TITLE "LR_black_phrase_E_04_084"
    INDEX 01 01:51:37
  TRACK 85 AUDIO
    TITLE "LR_black_phrase_E_04_085"
    INDEX 01 01:53:60
  TRACK 86 AUDIO
    TITLE "LR_black_phrase_E_04_086"
    INDEX 01 01:54:57
  TRACK 87 AUDIO
    TITLE "LR_black_phrase_E_04_087"
    INDEX 01 01:55:70
  TRACK 88 AUDIO
    TITLE "LR_black_phrase_E_04_088"
    INDEX 01 01:56:15
  TRACK 89 AUDIO
    TITLE "LR_black_phrase_E_04_089"
    INDEX 01 01:59:27
  TRACK 90 AUDIO
    TITLE "LR_black_phrase_E_04_090"
    INDEX 01 01:59:72
  TRACK 91 AUDIO
    TITLE "LR_black_phrase_E_04_091"
    INDEX 01 02:03:09
  TRACK 92 AUDIO
    TITLE "LR_black_phrase_E_04_092"
    INDEX 01 02:04:05
  TRACK 93 AUDIO
    TITLE "LR_black_phrase_E_04_093"
    INDEX 01 02:05:20
  TRACK 94 AUDIO
    TITLE "LR_black_phrase_E_04_094"
    INDEX 01 02:05:43
  TRACK 95 AUDIO
    TITLE "LR_black_phrase_E_04_095"
    INDEX 01 02:07:68
  TRACK 96 AUDIO
    TITLE "LR_black_phrase_E_04_096"
    INDEX 01 02:08:44
  TRACK 97 AUDIO
    TITLE "LR_black_phrase_E_04_097"
    INDEX 01 02:10:68
  TRACK 98 AUDIO
    TITLE "LR_black_phrase_E_04_098"
    INDEX 01 02:11:65
  TRACK 99 AUDIO
    TITLE "LR_black_phrase_E_04_099"
    INDEX 01 02:13:04
  TRACK 100 AUDIO
    TITLE "LR_black_phrase_E_04_100"
    INDEX 01 02:13:21
  TRACK 101 AUDIO
    TITLE "LR_black_phrase_E_04_101"
    INDEX 01 02:15:20
  TRACK 102 AUDIO
    TITLE "LR_black_phrase_E_04_102"
    INDEX 01 02:15:65
  TRACK 103 AUDIO
    TITLE "LR_black_phrase_E_04_103"
    INDEX 01 02:17:62
  TRACK 104 AUDIO
    TITLE "LR_black_phrase_E_04_104"
    INDEX 01 02:18:58
  TRACK 105 AUDIO
    TITLE "LR_black_phrase_E_04_105"
    INDEX 01 02:20:13
  TRACK 106 AUDIO
    TITLE "LR_black_phrase_E_04_106"
    INDEX 01 02:20:41
  TRACK 107 AUDIO
    TITLE "LR_black_phrase_E_04_107"
    INDEX 01 02:22:46
  TRACK 108 AUDIO
    TITLE "LR_black_phrase_E_04_108"
    INDEX 01 02:23:22
  TRACK 109 AUDIO
    TITLE "LR_black_phrase_E_04_109"
    INDEX 01 02:25:26
  TRACK 110 AUDIO
    TITLE "LR_black_phrase_E_04_110"
    INDEX 01 02:26:20
  TRACK 111 AUDIO
    TITLE "LR_black_phrase_E_04_111"
    INDEX 01 02:27:15
  TRACK 112 AUDIO
    TITLE "LR_black_phrase_E_04_112"
    INDEX 01 02:27:37
  TRACK 113 AUDIO
    TITLE "LR_black_phrase_E_04_113"
    INDEX 01 02:29:44
  TRACK 114 AUDIO
    TITLE "LR_black_phrase_E_04_114"
    INDEX 01 02:30:14
  TRACK 115 AUDIO
    TITLE "LR_black_phrase_E_04_115"
    INDEX 01 02:32:21
  TRACK 116 AUDIO
    TITLE "LR_black_phrase_E_04_116"
    INDEX 01 02:33:18
  TRACK 117 AUDIO
    TITLE "LR_black_phrase_E_04_117"
    INDEX 01 02:34:31
  TRACK 118 AUDIO
    TITLE "LR_black_phrase_E_04_118"
    INDEX 01 02:34:53
  TRACK 119 AUDIO
    TITLE "LR_black_phrase_E_04_119"
    INDEX 01 02:36:73
  TRACK 120 AUDIO
    TITLE "LR_black_phrase_E_04_120"
    INDEX 01 02:37:43
  TRACK 121 AUDIO
    TITLE "LR_black_phrase_E_04_121"
    INDEX 01 02:39:62
  TRACK 122 AUDIO
    TITLE "LR_black_phrase_E_04_122"
    INDEX 01 02:40:61
  TRACK 123 AUDIO
    TITLE "LR_black_phrase_E_04_123"
    INDEX 01 02:42:07
  TRACK 124 AUDIO
    TITLE "LR_black_phrase_E_04_124"
    INDEX 01 02:42:37
  TRACK 125 AUDIO
    TITLE "LR_black_phrase_E_04_125"
    INDEX 01 02:45:31
  TRACK 126 AUDIO
    TITLE "LR_black_phrase_E_04_126"
    INDEX 01 02:46:13
  TRACK 127 AUDIO
    TITLE "LR_black_phrase_E_04_127"
    INDEX 01 02:49:05
  TRACK 128 AUDIO
    TITLE "LR_black_phrase_E_04_128"
    INDEX 01 02:50:13
  TRACK 129 AUDIO
    TITLE "LR_black_phrase_E_04_129"
    INDEX 01 02:51:32
  TRACK 130 AUDIO
    TITLE "LR_black_phrase_E_04_130"
    INDEX 01 02:51:63
  TRACK 131 AUDIO
    TITLE "LR_black_phrase_E_04_131"
    INDEX 01 02:54:28
  TRACK 132 AUDIO
    TITLE "LR_black_phrase_E_04_132"
    INDEX 01 02:55:08
  TRACK 133 AUDIO
    TITLE "LR_black_phrase_E_04_133"
    INDEX 01 02:57:48
  TRACK 134 AUDIO
    TITLE "LR_black_phrase_E_04_134"
    INDEX 01 02:58:53
  TRACK 135 AUDIO
    TITLE "LR_black_phrase_E_04_135"
    INDEX 01 03:00:05
  TRACK 136 AUDIO
    TITLE "LR_black_phrase_E_04_136"
    INDEX 01 03:00:27
  TRACK 137 AUDIO
    TITLE "LR_black_phrase_E_04_137"
    INDEX 01 03:02:28
  TRACK 138 AUDIO
    TITLE "LR_black_phrase_E_04_138"
    INDEX 01 03:03:03
  TRACK 139 AUDIO
    TITLE "LR_black_phrase_E_04_139"
    INDEX 01 03:05:02
  TRACK 140 AUDIO
    TITLE "LR_black_phrase_E_04_140"
    INDEX 01 03:06:08
  TRACK 141 AUDIO
    TITLE "LR_black_phrase_E_04_141"
    INDEX 01 03:07:39
  TRACK 142 AUDIO
    TITLE "LR_black_phrase_E_04_142"
    INDEX 01 03:07:70
  TRACK 143 AUDIO
    TITLE "LR_black_phrase_E_04_143"
    INDEX 01 03:10:37
  TRACK 144 AUDIO
    TITLE "LR_black_phrase_E_04_144"
    INDEX 01 03:11:19
  TRACK 145 AUDIO
    TITLE "LR_black_phrase_E_04_145"
    INDEX 01 03:13:61
  TRACK 146 AUDIO
    TITLE "LR_black_phrase_E_04_146"
    INDEX 01 03:14:68
  TRACK 147 AUDIO
    TITLE "LR_black_phrase_E_04_147"
    INDEX 01 03:16:08
  TRACK 148 AUDIO
    TITLE "LR_black_phrase_E_04_148"
    INDEX 01 03:16:37
  TRACK 149 AUDIO
    TITLE "LR_black_phrase_E_04_149"
    INDEX 01 03:18:68
  TRACK 150 AUDIO
    TITLE "LR_black_phrase_E_04_150"
    INDEX 01 03:19:48
  TRACK 151 AUDIO
    TITLE "LR_black_phrase_E_04_151"
    INDEX 01 03:22:01
  TRACK 152 AUDIO
    TITLE "LR_black_phrase_E_04_152"
    INDEX 01 03:23:08
  TRACK 153 AUDIO
    TITLE "LR_black_phrase_E_04_153"
    INDEX 01 03:24:29
  TRACK 154 AUDIO
    TITLE "LR_black_phrase_E_04_154"
    INDEX 01 03:24:57
  TRACK 155 AUDIO
    TITLE "LR_black_phrase_E_04_155"
    INDEX 01 03:26:42
  TRACK 156 AUDIO
    TITLE "LR_black_phrase_E_04_156"
    INDEX 01 03:27:20
  TRACK 157 AUDIO
    TITLE "LR_black_phrase_E_04_157"
    INDEX 01 03:29:07
  TRACK 158 AUDIO
    TITLE "LR_black_phrase_E_04_158"
    INDEX 01 03:30:12
  TRACK 159 AUDIO
    TITLE "LR_black_phrase_E_04_159"
    INDEX 01 03:31:29
  TRACK 160 AUDIO
    TITLE "LR_black_phrase_E_04_160"
    INDEX 01 03:31:59
  TRACK 161 AUDIO
    TITLE "LR_black_phrase_E_04_161"
    INDEX 01 03:33:67
  TRACK 162 AUDIO
    TITLE "LR_black_phrase_E_04_162"
    INDEX 01 03:34:47
  TRACK 163 AUDIO
    TITLE "LR_black_phrase_E_04_163"
    INDEX 01 03:36:56
  TRACK 164 AUDIO
    TITLE "LR_black_phrase_E_04_164"
    INDEX 01 03:37:53
  TRACK 165 AUDIO
    TITLE "LR_black_phrase_E_04_165"
    INDEX 01 03:38:66
  TRACK 166 AUDIO
    TITLE "LR_black_phrase_E_04_166"
    INDEX 01 03:39:23
  TRACK 167 AUDIO
    TITLE "LR_black_phrase_E_04_167"
    INDEX 01 03:41:18
  TRACK 168 AUDIO
    TITLE "LR_black_phrase_E_04_168"
    INDEX 01 03:42:00
  TRACK 169 AUDIO
    TITLE "LR_black_phrase_E_04_169"
    INDEX 01 03:43:72
  TRACK 170 AUDIO
    TITLE "LR_black_phrase_E_04_170"
    INDEX 01 03:45:02
  TRACK 171 AUDIO
    TITLE "LR_black_phrase_E_04_171"
    INDEX 01 03:46:01
  TRACK 172 AUDIO
    TITLE "LR_black_phrase_E_04_172"
    INDEX 01 03:46:31
  TRACK 173 AUDIO
    TITLE "LR_black_phrase_E_04_173"
    INDEX 01 03:48:41
  TRACK 174 AUDIO
    TITLE "LR_black_phrase_E_04_174"
    INDEX 01 03:49:21
  TRACK 175 AUDIO
    TITLE "LR_black_phrase_E_04_175"
    INDEX 01 03:51:30
  TRACK 176 AUDIO
    TITLE "LR_black_phrase_E_04_176"
    INDEX 01 03:52:37
  TRACK 177 AUDIO
    TITLE "LR_black_phrase_E_04_177"
    INDEX 01 03:53:58
  TRACK 178 AUDIO
    TITLE "LR_black_phrase_E_04_178"
    INDEX 01 03:54:13
  TRACK 179 AUDIO
    TITLE "LR_black_phrase_E_04_179"
    INDEX 01 03:56:47
  TRACK 180 AUDIO
    TITLE "LR_black_phrase_E_04_180"
    INDEX 01 03:57:25
  TRACK 181 AUDIO
    TITLE "LR_black_phrase_E_04_181"
    INDEX 01 03:59:59
  TRACK 182 AUDIO
    TITLE "LR_black_phrase_E_04_182"
    INDEX 01 04:00:60
  TRACK 183 AUDIO
    TITLE "LR_black_phrase_E_04_183"
    INDEX 01 04:01:62
  TRACK 184 AUDIO
    TITLE "LR_black_phrase_E_04_184"
    INDEX 01 04:02:08
  TRACK 185 AUDIO
    TITLE "LR_black_phrase_E_04_185"
    INDEX 01 04:05:28
  TRACK 186 AUDIO
    TITLE "LR_black_phrase_E_04_186"
    INDEX 01 04:05:73
  TRACK 187 AUDIO
    TITLE "LR_black_phrase_E_04_187"
    INDEX 01 04:09:18
  TRACK 188 AUDIO
    TITLE "LR_black_phrase_E_04_188"
    INDEX 01 04:10:18
  TRACK 189 AUDIO
    TITLE "LR_black_phrase_E_04_189"
    INDEX 01 04:11:39
  TRACK 190 AUDIO
    TITLE "LR_black_phrase_E_04_190"
    INDEX 01 04:11:60
  TRACK 191 AUDIO
    TITLE "LR_black_phrase_E_04_191"
    INDEX 01 04:14:25
  TRACK 192 AUDIO
    TITLE "LR_black_phrase_E_04_192"
    INDEX 01 04:14:72
  TRACK 193 AUDIO
    TITLE "LR_black_phrase_E_04_193"
    INDEX 01 04:17:39
  TRACK 194 AUDIO
    TITLE "LR_black_phrase_E_04_194"
    INDEX 01 04:18:35
  TRACK 195 AUDIO
    TITLE "LR_black_phrase_E_04_195"
    INDEX 01 04:19:56
  TRACK 196 AUDIO
    TITLE "LR_black_phrase_E_04_196"
    INDEX 01 04:20:00
  TRACK 197 AUDIO
    TITLE "LR_black_phrase_E_04_197"
    INDEX 01 04:21:68
  TRACK 198 AUDIO
    TITLE "LR_black_phrase_E_04_198"
    INDEX 01 04:22:36
  TRACK 199 AUDIO
    TITLE "LR_black_phrase_E_04_199"
    INDEX 01 04:24:29
  TRACK 200 AUDIO
    TITLE "LR_black_phrase_E_04_200"
    INDEX 01 04:25:25
  TRACK 201 AUDIO
    TITLE "LR_black_phrase_E_04_201"
    INDEX 01 04:26:42
  TRACK 202 AUDIO
    TITLE "LR_black_phrase_E_04_202"
    INDEX 01 04:26:66
  TRACK 203 AUDIO
    TITLE "LR_black_phrase_E_04_203"
    INDEX 01 04:29:01
  TRACK 204 AUDIO
    TITLE "LR_black_phrase_E_04_204"
    INDEX 01 04:29:48
  TRACK 205 AUDIO
    TITLE "LR_black_phrase_E_04_205"
    INDEX 01 04:31:59
  TRACK 206 AUDIO
    TITLE "LR_black_phrase_E_04_206"
    INDEX 01 04:32:54
  TRACK 207 AUDIO
    TITLE "LR_black_phrase_E_04_207"
    INDEX 01 04:33:62
  TRACK 208 AUDIO
    TITLE "LR_black_phrase_E_04_208"
    INDEX 01 04:34:10
  TRACK 209 AUDIO
    TITLE "LR_black_phrase_E_04_209"
    INDEX 01 04:38:73
  TRACK 210 AUDIO
    TITLE "LR_black_phrase_E_04_210"
    INDEX 01 04:39:43
  TRACK 211 AUDIO
    TITLE "LR_black_phrase_E_04_211"
    INDEX 01 04:44:30
  TRACK 212 AUDIO
    TITLE "LR_black_phrase_E_04_212"
    INDEX 01 04:45:26
  TRACK 213 AUDIO
    TITLE "LR_black_phrase_E_04_213"
    INDEX 01 04:46:35
  TRACK 214 AUDIO
    TITLE "LR_black_phrase_E_04_214"
    INDEX 01 04:46:56
  TRACK 215 AUDIO
    TITLE "LR_black_phrase_E_04_215"
    INDEX 01 04:49:06
  TRACK 216 AUDIO
    TITLE "LR_black_phrase_E_04_216"
    INDEX 01 04:49:51
  TRACK 217 AUDIO
    TITLE "LR_black_phrase_E_04_217"
    INDEX 01 04:52:00
  TRACK 218 AUDIO
    TITLE "LR_black_phrase_E_04_218"
    INDEX 01 04:52:71
  TRACK 219 AUDIO
    TITLE "LR_black_phrase_E_04_219"
    INDEX 01 04:54:25
  TRACK 220 AUDIO
    TITLE "LR_black_phrase_E_04_220"
    INDEX 01 04:54:44
  TRACK 221 AUDIO
    TITLE "LR_black_phrase_E_04_221"
    INDEX 01 04:56:49
  TRACK 222 AUDIO
    TITLE "LR_black_phrase_E_04_222"
    INDEX 01 04:57:21
  TRACK 223 AUDIO
    TITLE "LR_black_phrase_E_04_223"
    INDEX 01 04:59:24
  TRACK 224 AUDIO
    TITLE "LR_black_phrase_E_04_224"
    INDEX 01 05:00:21
  TRACK 225 AUDIO
    TITLE "LR_black_phrase_E_04_225"
    INDEX 01 05:01:68
  TRACK 226 AUDIO
    TITLE "LR_black_phrase_E_04_226"
    INDEX 01 05:02:12
  TRACK 227 AUDIO
    TITLE "LR_black_phrase_E_04_227"
    INDEX 01 05:04:50
  TRACK 228 AUDIO
    TITLE "LR_black_phrase_E_04_228"
    INDEX 01 05:05:21
  TRACK 229 AUDIO
    TITLE "LR_black_phrase_E_04_229"
    INDEX 01 05:07:59
  TRACK 230 AUDIO
    TITLE "LR_black_phrase_E_04_230"
    INDEX 01 05:08:52
  TRACK 231 AUDIO
    TITLE "LR_black_phrase_E_04_231"
    INDEX 01 05:09:69
  TRACK 232 AUDIO
    TITLE "LR_black_phrase_E_04_232"
    INDEX 01 05:10:14
  TRACK 233 AUDIO
    TITLE "LR_black_phrase_E_04_233"
    INDEX 01 05:12:19
  TRACK 234 AUDIO
    TITLE "LR_black_phrase_E_04_234"
    INDEX 01 05:12:66
  TRACK 235 AUDIO
    TITLE "LR_black_phrase_E_04_235"
    INDEX 01 05:14:68
  TRACK 236 AUDIO
    TITLE "LR_black_phrase_E_04_236"
    INDEX 01 05:15:66
  TRACK 237 AUDIO
    TITLE "LR_black_phrase_E_04_237"
    INDEX 01 05:16:71
  TRACK 238 AUDIO
    TITLE "LR_black_phrase_E_04_238"
    INDEX 01 05:17:16
  TRACK 239 AUDIO
    TITLE "LR_black_phrase_E_04_239"
    INDEX 01 05:19:17
  TRACK 240 AUDIO
    TITLE "LR_black_phrase_E_04_240"
    INDEX 01 05:19:64
  TRACK 241 AUDIO
    TITLE "LR_black_phrase_E_04_241"
    INDEX 01 05:21:67
  TRACK 242 AUDIO
    TITLE "LR_black_phrase_E_04_242"
    INDEX 01 05:22:70
  TRACK 243 AUDIO
    TITLE "LR_black_phrase_E_04_243"
    INDEX 01 05:24:10
  TRACK 244 AUDIO
    TITLE "LR_black_phrase_E_04_244"
    INDEX 01 05:24:39
  TRACK 245 AUDIO
    TITLE "LR_black_phrase_E_04_245"
    INDEX 01 05:27:06
  TRACK 246 AUDIO
    TITLE "LR_black_phrase_E_04_246"
    INDEX 01 05:27:63
  TRACK 247 AUDIO
    TITLE "LR_black_phrase_E_04_247"
    INDEX 01 05:30:28
  TRACK 248 AUDIO
    TITLE "LR_black_phrase_E_04_248"
    INDEX 01 05:31:36
  TRACK 249 AUDIO
    TITLE "LR_black_phrase_E_04_249"
    INDEX 01 05:32:47
  TRACK 250 AUDIO
    TITLE "LR_black_phrase_E_04_250"
    INDEX 01 05:33:03
  TRACK 251 AUDIO
    TITLE "LR_black_phrase_E_04_251"
    INDEX 01 05:35:29
  TRACK 252 AUDIO
    TITLE "LR_black_phrase_E_04_252"
    INDEX 01 05:36:09
  TRACK 253 AUDIO
    TITLE "LR_black_phrase_E_04_253"
    INDEX 01 05:38:38
  TRACK 254 AUDIO
    TITLE "LR_black_phrase_E_04_254"
    INDEX 01 05:39:43
  TRACK 255 AUDIO
    TITLE "LR_black_phrase_E_04_255"
    INDEX 01 05:41:03
  TRACK 256 AUDIO
    TITLE "LR_black_phrase_E_04_256"
    INDEX 01 05:41:30
  TRACK 257 AUDIO
    TITLE "LR_black_phrase_E_04_257"
    INDEX 01 05:43:70
  TRACK 258 AUDIO
    TITLE "LR_black_phrase_E_04_258"
    INDEX 01 05:44:48
  TRACK 259 AUDIO
    TITLE "LR_black_phrase_E_04_259"
    INDEX 01 05:47:11
  TRACK 260 AUDIO
    TITLE "LR_black_phrase_E_04_260"
    INDEX 01 05:48:14
  TRACK 261 AUDIO
    TITLE "LR_black_phrase_E_04_261"
    INDEX 01 05:49:39
  TRACK 262 AUDIO
    TITLE "LR_black_phrase_E_04_262"
    INDEX 01 05:49:67
  TRACK 263 AUDIO
    TITLE "LR_black_phrase_E_04_263"
    INDEX 01 05:52:36
  TRACK 264 AUDIO
    TITLE "LR_black_phrase_E_04_264"
    INDEX 01 05:53:12
  TRACK 265 AUDIO
    TITLE "LR_black_phrase_E_04_265"
    INDEX 01 05:55:56
  TRACK 266 AUDIO
    TITLE "LR_black_phrase_E_04_266"
    INDEX 01 05:56:57
  TRACK 267 AUDIO
    TITLE "LR_black_phrase_E_04_267"
    INDEX 01 05:57:72
  TRACK 268 AUDIO
    TITLE "LR_black_phrase_E_04_268"
    INDEX 01 05:58:34
  TRACK 269 AUDIO
    TITLE "LR_black_phrase_E_04_269"
    INDEX 01 06:00:31
  TRACK 270 AUDIO
    TITLE "LR_black_phrase_E_04_270"
    INDEX 01 06:01:09
  TRACK 271 AUDIO
    TITLE "LR_black_phrase_E_04_271"
    INDEX 01 06:03:04
  TRACK 272 AUDIO
    TITLE "LR_black_phrase_E_04_272"
    INDEX 01 06:04:10
  TRACK 273 AUDIO
    TITLE "LR_black_phrase_E_04_273"
    INDEX 01 06:05:42
  TRACK 274 AUDIO
    TITLE "LR_black_phrase_E_04_274"
    INDEX 01 06:05:72
  TRACK 275 AUDIO
    TITLE "LR_black_phrase_E_04_275"
    INDEX 01 06:07:55
  TRACK 276 AUDIO
    TITLE "LR_black_phrase_E_04_276"
    INDEX 01 06:08:35
  TRACK 277 AUDIO
    TITLE "LR_black_phrase_E_04_277"
    INDEX 01 06:10:18
  TRACK 278 AUDIO
    TITLE "LR_black_phrase_E_04_278"
    INDEX 01 06:11:21
  TRACK 279 AUDIO
    TITLE "LR_black_phrase_E_04_279"
    INDEX 01 06:12:33
  TRACK 280 AUDIO
    TITLE "LR_black_phrase_E_04_280"
    INDEX 01 06:12:62
  TRACK 281 AUDIO
    TITLE "LR_black_phrase_E_04_281"
    INDEX 01 06:14:41
  TRACK 282 AUDIO
    TITLE "LR_black_phrase_E_04_282"
    INDEX 01 06:15:23
  TRACK 283 AUDIO
    TITLE "LR_black_phrase_E_04_283"
    INDEX 01 06:17:00
  TRACK 284 AUDIO
    TITLE "LR_black_phrase_E_04_284"
    INDEX 01 06:18:08
  TRACK 285 AUDIO
    TITLE "LR_black_phrase_E_04_285"
    INDEX 01 06:19:37
  TRACK 286 AUDIO
    TITLE "LR_black_phrase_E_04_286"
    INDEX 01 06:19:68
  TRACK 287 AUDIO
    TITLE "LR_black_phrase_E_04_287"
    INDEX 01 06:22:06
  TRACK 288 AUDIO
    TITLE "LR_black_phrase_E_04_288"
    INDEX 01 06:22:60
  TRACK 289 AUDIO
    TITLE "LR_black_phrase_E_04_289"
    INDEX 01 06:24:73
  TRACK 290 AUDIO
    TITLE "LR_black_phrase_E_04_290"
    INDEX 01 06:26:01
  TRACK 291 AUDIO
    TITLE "LR_black_phrase_E_04_291"
    INDEX 01 06:27:22
  TRACK 292 AUDIO
    TITLE "LR_black_phrase_E_04_292"
    INDEX 01 06:27:52
  TRACK 293 AUDIO
    TITLE "LR_black_phrase_E_04_293"
    INDEX 01 06:29:58
  TRACK 294 AUDIO
    TITLE "LR_black_phrase_E_04_294"
    INDEX 01 06:30:36
  TRACK 295 AUDIO
    TITLE "LR_black_phrase_E_04_295"
    INDEX 01 06:32:43
  TRACK 296 AUDIO
    TITLE "LR_black_phrase_E_04_296"
    INDEX 01 06:33:46
  TRACK 297 AUDIO
    TITLE "LR_black_phrase_E_04_297"
    INDEX 01 06:35:06
  TRACK 298 AUDIO
    TITLE "LR_black_phrase_E_04_298"
    INDEX 01 06:35:36
  TRACK 299 AUDIO
    TITLE "LR_black_phrase_E_04_299"
    INDEX 01 06:37:34
  TRACK 300 AUDIO
    TITLE "LR_black_phrase_E_04_300"
    INDEX 01 06:38:14
  TRACK 301 AUDIO
    TITLE "LR_black_phrase_E_04_301"
    INDEX 01 06:40:15
  TRACK 302 AUDIO
    TITLE "LR_black_phrase_E_04_302"
    INDEX 01 06:41:15
  TRACK 303 AUDIO
    TITLE "LR_black_phrase_E_04_303"
    INDEX 01 06:42:26
  TRACK 304 AUDIO
    TITLE "LR_black_phrase_E_04_304"
    INDEX 01 06:42:47
  TRACK 305 AUDIO
    TITLE "LR_black_phrase_E_04_305"
    INDEX 01 06:45:71
  TRACK 306 AUDIO
    TITLE "LR_black_phrase_E_04_306"
    INDEX 01 06:46:41
  TRACK 307 AUDIO
    TITLE "LR_black_phrase_E_04_307"
    INDEX 01 06:49:67
  TRACK 308 AUDIO
    TITLE "LR_black_phrase_E_04_308"
    INDEX 01 06:50:63
  TRACK 309 AUDIO
    TITLE "LR_black_phrase_E_04_309"
    INDEX 01 06:52:20
  TRACK 310 AUDIO
    TITLE "LR_black_phrase_E_04_310"
    INDEX 01 06:52:46
  TRACK 311 AUDIO
    TITLE "LR_black_phrase_E_04_311"
    INDEX 01 06:55:44
  TRACK 312 AUDIO
    TITLE "LR_black_phrase_E_04_312"
    INDEX 01 06:56:12
  TRACK 313 AUDIO
    TITLE "LR_black_phrase_E_04_313"
    INDEX 01 06:59:11
  TRACK 314 AUDIO
    TITLE "LR_black_phrase_E_04_314"
    INDEX 01 07:00:06
  TRACK 315 AUDIO
    TITLE "LR_black_phrase_E_04_315"
    INDEX 01 07:01:31
  TRACK 316 AUDIO
    TITLE "LR_black_phrase_E_04_316"
    INDEX 01 07:01:53
  TRACK 317 AUDIO
    TITLE "LR_black_phrase_E_04_317"
    INDEX 01 07:03:71
  TRACK 318 AUDIO
    TITLE "LR_black_phrase_E_04_318"
    INDEX 01 07:04:39
  TRACK 319 AUDIO
    TITLE "LR_black_phrase_E_04_319"
    INDEX 01 07:06:58
  TRACK 320 AUDIO
    TITLE "LR_black_phrase_E_04_320"
    INDEX 01 07:07:53
  TRACK 321 AUDIO
    TITLE "LR_black_phrase_E_04_321"
    INDEX 01 07:09:03
  TRACK 322 AUDIO
    TITLE "LR_black_phrase_E_04_322"
    INDEX 01 07:09:25
  TRACK 323 AUDIO
    TITLE "LR_black_phrase_E_04_323"
    INDEX 01 07:12:07
  TRACK 324 AUDIO
    TITLE "LR_black_phrase_E_04_324"
    INDEX 01 07:12:52
  TRACK 325 AUDIO
    TITLE "LR_black_phrase_E_04_325"
    INDEX 01 07:15:35
  TRACK 326 AUDIO
    TITLE "LR_black_phrase_E_04_326"
    INDEX 01 07:16:29
  TRACK 327 AUDIO
    TITLE "LR_black_phrase_E_04_327"
    INDEX 01 07:17:65
  TRACK 328 AUDIO
    TITLE "LR_black_phrase_E_04_328"
    INDEX 01 07:18:10
  TRACK 329 AUDIO
    TITLE "LR_black_phrase_E_04_329"
    INDEX 01 07:20:44
  TRACK 330 AUDIO
    TITLE "LR_black_phrase_E_04_330"
    INDEX 01 07:21:14
  TRACK 331 AUDIO
    TITLE "LR_black_phrase_E_04_331"
    INDEX 01 07:23:50
  TRACK 332 AUDIO
    TITLE "LR_black_phrase_E_04_332"
    INDEX 01 07:24:48
  TRACK 333 AUDIO
    TITLE "LR_black_phrase_E_04_333"
    INDEX 01 07:25:63
  TRACK 334 AUDIO
    TITLE "LR_black_phrase_E_04_334"
    INDEX 01 07:26:07
  TRACK 335 AUDIO
    TITLE "LR_black_phrase_E_04_335"
    INDEX 01 07:27:68
  TRACK 336 AUDIO
    TITLE "LR_black_phrase_E_04_336"
    INDEX 01 07:28:40
  TRACK 337 AUDIO
    TITLE "LR_black_phrase_E_04_337"
    INDEX 01 07:30:25
  TRACK 338 AUDIO
    TITLE "LR_black_phrase_E_04_338"
    INDEX 01 07:31:22
  TRACK 339 AUDIO
    TITLE "LR_black_phrase_E_04_339"
    INDEX 01 07:32:37
  TRACK 340 AUDIO
    TITLE "LR_black_phrase_E_04_340"
    INDEX 01 07:32:57
  TRACK 341 AUDIO
    TITLE "LR_black_phrase_E_04_341"
    INDEX 01 07:34:54
  TRACK 342 AUDIO
    TITLE "LR_black_phrase_E_04_342"
    INDEX 01 07:35:22
  TRACK 343 AUDIO
    TITLE "LR_black_phrase_E_04_343"
    INDEX 01 07:37:21
  TRACK 344 AUDIO
    TITLE "LR_black_phrase_E_04_344"
    INDEX 01 07:38:13
  TRACK 345 AUDIO
    TITLE "LR_black_phrase_E_04_345"
    INDEX 01 07:39:30
  TRACK 346 AUDIO
    TITLE "LR_black_phrase_E_04_346"
    INDEX 01 07:39:51
  TRACK 347 AUDIO
    TITLE "LR_black_phrase_E_04_347"
    INDEX 01 07:41:52
  TRACK 348 AUDIO
    TITLE "LR_black_phrase_E_04_348"
    INDEX 01 07:42:20
  TRACK 349 AUDIO
    TITLE "LR_black_phrase_E_04_349"
    INDEX 01 07:44:19
  TRACK 350 AUDIO
    TITLE "LR_black_phrase_E_04_350"
    INDEX 01 07:45:17
  TRACK 351 AUDIO
    TITLE "LR_black_phrase_E_04_351"
    INDEX 01 07:46:38
  TRACK 352 AUDIO
    TITLE "LR_black_phrase_E_04_352"
    INDEX 01 07:46:63
  TRACK 353 AUDIO
    TITLE "LR_black_phrase_E_04_353"
    INDEX 01 07:49:24
  TRACK 354 AUDIO
    TITLE "LR_black_phrase_E_04_354"
    INDEX 01 07:49:73
  TRACK 355 AUDIO
    TITLE "LR_black_phrase_E_04_355"
    INDEX 01 07:52:34
  TRACK 356 AUDIO
    TITLE "LR_black_phrase_E_04_356"
    INDEX 01 07:53:30
  TRACK 357 AUDIO
    TITLE "LR_black_phrase_E_04_357"
    INDEX 01 07:54:47
  TRACK 358 AUDIO
    TITLE "LR_black_phrase_E_04_358"
    INDEX 01 07:54:70
  TRACK 359 AUDIO
    TITLE "LR_black_phrase_E_04_359"
    INDEX 01 07:57:57
  TRACK 360 AUDIO
    TITLE "LR_black_phrase_E_04_360"
    INDEX 01 07:58:27
  TRACK 361 AUDIO
    TITLE "LR_black_phrase_E_04_361"
    INDEX 01 08:01:14
  TRACK 362 AUDIO
    TITLE "LR_black_phrase_E_04_362"
    INDEX 01 08:02:15
  TRACK 363 AUDIO
    TITLE "LR_black_phrase_E_04_363"
    INDEX 01 08:03:30
  TRACK 364 AUDIO
    TITLE "LR_black_phrase_E_04_364"
    INDEX 01 08:03:63
  TRACK 365 AUDIO
    TITLE "LR_black_phrase_E_04_365"
    INDEX 01 08:06:38
  TRACK 366 AUDIO
    TITLE "LR_black_phrase_E_04_366"
    INDEX 01 08:07:18
  TRACK 367 AUDIO
    TITLE "LR_black_phrase_E_04_367"
    INDEX 01 08:09:68
  TRACK 368 AUDIO
    TITLE "LR_black_phrase_E_04_368"
    INDEX 01 08:10:73
  TRACK 369 AUDIO
    TITLE "LR_black_phrase_E_04_369"
    INDEX 01 08:12:19
  TRACK 370 AUDIO
    TITLE "LR_black_phrase_E_04_370"
    INDEX 01 08:12:47
  TRACK 371 AUDIO
    TITLE "LR_black_phrase_E_04_371"
    INDEX 01 08:15:59
  TRACK 372 AUDIO
    TITLE "LR_black_phrase_E_04_372"
    INDEX 01 08:16:41
  TRACK 373 AUDIO
    TITLE "LR_black_phrase_E_04_373"
    INDEX 01 08:19:53
  TRACK 374 AUDIO
    TITLE "LR_black_phrase_E_04_374"
    INDEX 01 08:20:58
  TRACK 375 AUDIO
    TITLE "LR_black_phrase_E_04_375"
    INDEX 01 08:21:71
  TRACK 376 AUDIO
    TITLE "LR_black_phrase_E_04_376"
    INDEX 01 08:22:24
  TRACK 377 AUDIO
    TITLE "LR_black_phrase_E_04_377"
    INDEX 01 08:24:52
  TRACK 378 AUDIO
    TITLE "LR_black_phrase_E_04_378"
    INDEX 01 08:25:30
  TRACK 379 AUDIO
    TITLE "LR_black_phrase_E_04_379"
    INDEX 01 08:27:56
  TRACK 380 AUDIO
    TITLE "LR_black_phrase_E_04_380"
    INDEX 01 08:28:60
  TRACK 381 AUDIO
    TITLE "LR_black_phrase_E_04_381"
    INDEX 01 08:29:69
  TRACK 382 AUDIO
    TITLE "LR_black_phrase_E_04_382"
    INDEX 01 08:30:21
  TRACK 383 AUDIO
    TITLE "LR_black_phrase_E_04_383"
    INDEX 01 08:32:48
  TRACK 384 AUDIO
    TITLE "LR_black_phrase_E_04_384"
    INDEX 01 08:33:27
  TRACK 385 AUDIO
    TITLE "LR_black_phrase_E_04_385"
    INDEX 01 08:35:54
  TRACK 386 AUDIO
    TITLE "LR_black_phrase_E_04_386"
    INDEX 01 08:36:57
  TRACK 387 AUDIO
    TITLE "LR_black_phrase_E_04_387"
    INDEX 01 08:37:72
  TRACK 388 AUDIO
    TITLE "LR_black_phrase_E_04_388"
    INDEX 01 08:38:27
  TRACK 389 AUDIO
    TITLE "LR_black_phrase_E_04_389"
    INDEX 01 08:40:37
  TRACK 390 AUDIO
    TITLE "LR_black_phrase_E_04_390"
    INDEX 01 08:41:17
  TRACK 391 AUDIO
    TITLE "LR_black_phrase_E_04_391"
    INDEX 01 08:43:28
  TRACK 392 AUDIO
    TITLE "LR_black_phrase_E_04_392"
    INDEX 01 08:44:31
  TRACK 393 AUDIO
    TITLE "LR_black_phrase_E_04_393"
    INDEX 01 08:45:44
  TRACK 394 AUDIO
    TITLE "LR_black_phrase_E_04_394"
    INDEX 01 08:45:72
  TRACK 395 AUDIO
    TITLE "LR_black_phrase_E_04_395"
    INDEX 01 08:48:25
  TRACK 396 AUDIO
    TITLE "LR_black_phrase_E_04_396"
    INDEX 01 08:49:05
  TRACK 397 AUDIO
    TITLE "LR_black_phrase_E_04_397"
    INDEX 01 08:51:31
  TRACK 398 AUDIO
    TITLE "LR_black_phrase_E_04_398"
    INDEX 01 08:52:37
  TRACK 399 AUDIO
    TITLE "LR_black_phrase_E_04_399"
    INDEX 01 08:53:65
  TRACK 400 AUDIO
    TITLE "LR_black_phrase_E_04_400"
    INDEX 01 08:54:20
  TRACK 401 AUDIO
    TITLE "LR_black_phrase_E_04_401"
    INDEX 01 08:56:48
  TRACK 402 AUDIO
    TITLE "LR_black_phrase_E_04_402"
    INDEX 01 08:57:30
  TRACK 403 AUDIO
    TITLE "LR_black_phrase_E_04_403"
    INDEX 01 08:59:58
  TRACK 404 AUDIO
    TITLE "LR_black_phrase_E_04_404"
    INDEX 01 09:00:65
  TRACK 405 AUDIO
    TITLE "LR_black_phrase_E_04_405"
    INDEX 01 09:02:19
  TRACK 406 AUDIO
    TITLE "LR_black_phrase_E_04_406"
    INDEX 01 09:02:47
  TRACK 407 AUDIO
    TITLE "LR_black_phrase_E_04_407"
    INDEX 01 09:04:53
  TRACK 408 AUDIO
    TITLE "LR_black_phrase_E_04_408"
    INDEX 01 09:05:33
  TRACK 409 AUDIO
    TITLE "LR_black_phrase_E_04_409"
    INDEX 01 09:07:38
  TRACK 410 AUDIO
    TITLE "LR_black_phrase_E_04_410"
    INDEX 01 09:08:41
  TRACK 411 AUDIO
    TITLE "LR_black_phrase_E_04_411"
    INDEX 01 09:09:58
  TRACK 412 AUDIO
    TITLE "LR_black_phrase_E_04_412"
    INDEX 01 09:10:15
  TRACK 413 AUDIO
    TITLE "LR_black_phrase_E_04_413"
    INDEX 01 09:13:05
  TRACK 414 AUDIO
    TITLE "LR_black_phrase_E_04_414"
    INDEX 01 09:13:60
  TRACK 415 AUDIO
    TITLE "LR_black_phrase_E_04_415"
    INDEX 01 09:16:51
  TRACK 416 AUDIO
    TITLE "LR_black_phrase_E_04_416"
    INDEX 01 09:17:54
  TRACK 417 AUDIO
    TITLE "LR_black_phrase_E_04_417"
    INDEX 01 09:18:59
  TRACK 418 AUDIO
    TITLE "LR_black_phrase_E_04_418"
    INDEX 01 09:19:16
  TRACK 419 AUDIO
    TITLE "LR_black_phrase_E_04_419"
    INDEX 01 09:21:13
  TRACK 420 AUDIO
    TITLE "LR_black_phrase_E_04_420"
    INDEX 01 09:21:69
  TRACK 421 AUDIO
    TITLE "LR_black_phrase_E_04_421"
    INDEX 01 09:23:68
  TRACK 422 AUDIO
    TITLE "LR_black_phrase_E_04_422"
    INDEX 01 09:24:74
  TRACK 423 AUDIO
    TITLE "LR_black_phrase_E_04_423"
    INDEX 01 09:26:28
  TRACK 424 AUDIO
    TITLE "LR_black_phrase_E_04_424"
    INDEX 01 09:26:55
  TRACK 425 AUDIO
    TITLE "LR_black_phrase_E_04_425"
    INDEX 01 09:29:34
  TRACK 426 AUDIO
    TITLE "LR_black_phrase_E_04_426"
    INDEX 01 09:30:04
  TRACK 427 AUDIO
    TITLE "LR_black_phrase_E_04_427"
    INDEX 01 09:32:58
  TRACK 428 AUDIO
    TITLE "LR_black_phrase_E_04_428"
    INDEX 01 09:33:55
  TRACK 429 AUDIO
    TITLE "LR_black_phrase_E_04_429"
    INDEX 01 09:35:01
  TRACK 430 AUDIO
    TITLE "LR_black_phrase_E_04_430"
    INDEX 01 09:35:25
  TRACK 431 AUDIO
    TITLE "LR_black_phrase_E_04_431"
    INDEX 01 09:37:57
  TRACK 432 AUDIO
    TITLE "LR_black_phrase_E_04_432"
    INDEX 01 09:38:29
  TRACK 433 AUDIO
    TITLE "LR_black_phrase_E_04_433"
    INDEX 01 09:40:63
  TRACK 434 AUDIO
    TITLE "LR_black_phrase_E_04_434"
    INDEX 01 09:41:60
  TRACK 435 AUDIO
    TITLE "LR_black_phrase_E_04_435"
    INDEX 01 09:43:20
  TRACK 436 AUDIO
    TITLE "LR_black_phrase_E_04_436"
    INDEX 01 09:43:48
  TRACK 437 AUDIO
    TITLE "LR_black_phrase_E_04_437"
    INDEX 01 09:46:50
  TRACK 438 AUDIO
    TITLE "LR_black_phrase_E_04_438"
    INDEX 01 09:47:26
  TRACK 439 AUDIO
    TITLE "LR_black_phrase_E_04_439"
    INDEX 01 09:50:28
  TRACK 440 AUDIO
    TITLE "LR_black_phrase_E_04_440"
    INDEX 01 09:51:28
  TRACK 441 AUDIO
    TITLE "LR_black_phrase_E_04_441"
    INDEX 01 09:52:56
  TRACK 442 AUDIO
    TITLE "LR_black_phrase_E_04_442"
    INDEX 01 09:53:01
  TRACK 443 AUDIO
    TITLE "LR_black_phrase_E_04_443"
    INDEX 01 09:55:39
  TRACK 444 AUDIO
    TITLE "LR_black_phrase_E_04_444"
    INDEX 01 09:56:09
  TRACK 445 AUDIO
    TITLE "LR_black_phrase_E_04_445"
    INDEX 01 09:58:49
  TRACK 446 AUDIO
    TITLE "LR_black_phrase_E_04_446"
    INDEX 01 09:59:45
  TRACK 447 AUDIO
    TITLE "LR_black_phrase_E_04_447"
    INDEX 01 10:00:52
  TRACK 448 AUDIO
    TITLE "LR_black_phrase_E_04_448"
    INDEX 01 10:01:00
  TRACK 449 AUDIO
    TITLE "LR_black_phrase_E_04_449"
    INDEX 01 10:03:11
  TRACK 450 AUDIO
    TITLE "LR_black_phrase_E_04_450"
    INDEX 01 10:03:64
  TRACK 451 AUDIO
    TITLE "LR_black_phrase_E_04_451"
    INDEX 01 10:06:02
  TRACK 452 AUDIO
    TITLE "LR_black_phrase_E_04_452"
    INDEX 01 10:07:05
  TRACK 453 AUDIO
    TITLE "LR_black_phrase_E_04_453"
    INDEX 01 10:08:20
  TRACK 454 AUDIO
    TITLE "LR_black_phrase_E_04_454"
    INDEX 01 10:08:40
  TRACK 455 AUDIO
    TITLE "LR_black_phrase_E_04_455"
    INDEX 01 10:10:70
  TRACK 456 AUDIO
    TITLE "LR_black_phrase_E_04_456"
    INDEX 01 10:11:40
  TRACK 457 AUDIO
    TITLE "LR_black_phrase_E_04_457"
    INDEX 01 10:13:68
  TRACK 458 AUDIO
    TITLE "LR_black_phrase_E_04_458"
    INDEX 01 10:14:64
  TRACK 459 AUDIO
    TITLE "LR_black_phrase_E_04_459"
    INDEX 01 10:16:06
  TRACK 460 AUDIO
    TITLE "LR_black_phrase_E_04_460"
    INDEX 01 10:16:27
  TRACK 461 AUDIO
    TITLE "LR_black_phrase_E_04_461"
    INDEX 01 10:18:60
  TRACK 462 AUDIO
    TITLE "LR_black_phrase_E_04_462"
    INDEX 01 10:19:36
  TRACK 463 AUDIO
    TITLE "LR_black_phrase_E_04_463"
    INDEX 01 10:21:68
  TRACK 464 AUDIO
    TITLE "LR_black_phrase_E_04_464"
    INDEX 01 10:22:73
  TRACK 465 AUDIO
    TITLE "LR_black_phrase_E_04_465"
    INDEX 01 10:24:05
  TRACK 466 AUDIO
    TITLE "LR_black_phrase_E_04_466"
    INDEX 01 10:24:27
  TRACK 467 AUDIO
    TITLE "LR_black_phrase_E_04_467"
    INDEX 01 10:26:30
  TRACK 468 AUDIO
    TITLE "LR_black_phrase_E_04_468"
    INDEX 01 10:27:06
  TRACK 469 AUDIO
    TITLE "LR_black_phrase_E_04_469"
    INDEX 01 10:29:07
  TRACK 470 AUDIO
    TITLE "LR_black_phrase_E_04_470"
    INDEX 01 10:30:04
  TRACK 471 AUDIO
    TITLE "LR_black_phrase_E_04_471"
    INDEX 01 10:31:25
  TRACK 472 AUDIO
    TITLE "LR_black_phrase_E_04_472"
    INDEX 01 10:31:47
  TRACK 473 AUDIO
    TITLE "LR_black_phrase_E_04_473"
    INDEX 01 10:34:21
  TRACK 474 AUDIO
    TITLE "LR_black_phrase_E_04_474"
    INDEX 01 10:34:66
  TRACK 475 AUDIO
    TITLE "LR_black_phrase_E_04_475"
    INDEX 01 10:37:37
  TRACK 476 AUDIO
    TITLE "LR_black_phrase_E_04_476"
    INDEX 01 10:38:33
  TRACK 477 AUDIO
    TITLE "LR_black_phrase_E_04_477"
    INDEX 01 10:39:48
  TRACK 478 AUDIO
    TITLE "LR_black_phrase_E_04_478"
    INDEX 01 10:39:70
  TRACK 479 AUDIO
    TITLE "LR_black_phrase_E_04_479"
    INDEX 01 10:41:70
  TRACK 480 AUDIO
    TITLE "LR_black_phrase_E_04_480"
    INDEX 01 10:42:42
  TRACK 481 AUDIO
    TITLE "LR_black_phrase_E_04_481"
    INDEX 01 10:44:41
  TRACK 482 AUDIO
    TITLE "LR_black_phrase_E_04_482"
    INDEX 01 10:45:37
  TRACK 483 AUDIO
    TITLE "LR_black_phrase_E_04_483"
    INDEX 01 10:46:58
  TRACK 484 AUDIO
    TITLE "LR_black_phrase_E_04_484"
    INDEX 01 10:47:12
  TRACK 485 AUDIO
    TITLE "LR_black_phrase_E_04_485"
    INDEX 01 10:49:37
  TRACK 486 AUDIO
    TITLE "LR_black_phrase_E_04_486"
    INDEX 01 10:50:15
  TRACK 487 AUDIO
    TITLE "LR_black_phrase_E_04_487"
    INDEX 01 10:52:39
  TRACK 488 AUDIO
    TITLE "LR_black_phrase_E_04_488"
    INDEX 01 10:53:42
  TRACK 489 AUDIO
    TITLE "LR_black_phrase_E_04_489"
    INDEX 01 10:54:52
  TRACK 490 AUDIO
    TITLE "LR_black_phrase_E_04_490"
    INDEX 01 10:55:04
  TRACK 491 AUDIO
    TITLE "LR_black_phrase_E_04_491"
    INDEX 01 10:56:64
  TRACK 492 AUDIO
    TITLE "LR_black_phrase_E_04_492"
    INDEX 01 10:57:42
  TRACK 493 AUDIO
    TITLE "LR_black_phrase_E_04_493"
    INDEX 01 10:59:27
  TRACK 494 AUDIO
    TITLE "LR_black_phrase_E_04_494"
    INDEX 01 11:00:31
  TRACK 495 AUDIO
    TITLE "LR_black_phrase_E_04_495"
    INDEX 01 11:01:65
  TRACK 496 AUDIO
    TITLE "LR_black_phrase_E_04_496"
    INDEX 01 11:02:20
  TRACK 497 AUDIO
    TITLE "LR_black_phrase_E_04_497"
    INDEX 01 11:04:28
  TRACK 498 AUDIO
    TITLE "LR_black_phrase_E_04_498"
    INDEX 01 11:05:10
  TRACK 499 AUDIO
    TITLE "LR_black_phrase_E_04_499"
    INDEX 01 11:07:19
  TRACK 500 AUDIO
    TITLE "LR_black_phrase_E_04_500"
    INDEX 01 11:08:26
  TRACK 501 AUDIO
    TITLE "LR_black_phrase_E_04_501"
    INDEX 01 11:09:26
  TRACK 502 AUDIO
    TITLE "LR_black_phrase_E_04_502"
    INDEX 01 11:09:57
  TRACK 503 AUDIO
    TITLE "LR_black_phrase_E_04_503"
    INDEX 01 11:11:46
  TRACK 504 AUDIO
    TITLE "LR_black_phrase_E_04_504"
    INDEX 01 11:12:24
  TRACK 505 AUDIO
    TITLE "LR_black_phrase_E_04_505"
    INDEX 01 11:14:13
  TRACK 506 AUDIO
    TITLE "LR_black_phrase_E_04_506"
    INDEX 01 11:15:16
  TRACK 507 AUDIO
    TITLE "LR_black_phrase_E_04_507"
    INDEX 01 11:16:45
  TRACK 508 AUDIO
    TITLE "LR_black_phrase_E_04_508"
    INDEX 01 11:17:00
  TRACK 509 AUDIO
    TITLE "LR_black_phrase_E_04_509"
    INDEX 01 11:19:06
  TRACK 510 AUDIO
    TITLE "LR_black_phrase_E_04_510"
    INDEX 01 11:19:63
  TRACK 511 AUDIO
    TITLE "LR_black_phrase_E_04_511"
    INDEX 01 11:21:70
  TRACK 512 AUDIO
    TITLE "LR_black_phrase_E_04_512"
    INDEX 01 11:23:00
  TRACK 513 AUDIO
    TITLE "LR_black_phrase_E_04_513"
    INDEX 01 11:24:19
  TRACK 514 AUDIO
    TITLE "LR_black_phrase_E_04_514"
    INDEX 01 11:24:49
  TRACK 515 AUDIO
    TITLE "LR_black_phrase_E_04_515"
    INDEX 01 11:26:38
  TRACK 516 AUDIO
    TITLE "LR_black_phrase_E_04_516"
    INDEX 01 11:27:18
  TRACK 517 AUDIO
    TITLE "LR_black_phrase_E_04_517"
    INDEX 01 11:29:09
  TRACK 518 AUDIO
    TITLE "LR_black_phrase_E_04_518"
    INDEX 01 11:30:12
  TRACK 519 AUDIO
    TITLE "LR_black_phrase_E_04_519"
    INDEX 01 11:31:33
  TRACK 520 AUDIO
    TITLE "LR_black_phrase_E_04_520"
    INDEX 01 11:31:64
  TRACK 521 AUDIO
    TITLE "LR_black_phrase_E_04_521"
    INDEX 01 11:34:30
  TRACK 522 AUDIO
    TITLE "LR_black_phrase_E_04_522"
    INDEX 01 11:35:09
  TRACK 523 AUDIO
    TITLE "LR_black_phrase_E_04_523"
    INDEX 01 11:37:51
  TRACK 524 AUDIO
    TITLE "LR_black_phrase_E_04_524"
    INDEX 01 11:38:55
  TRACK 525 AUDIO
    TITLE "LR_black_phrase_E_04_525"
    INDEX 01 11:39:70
  TRACK 526 AUDIO
    TITLE "LR_black_phrase_E_04_526"
    INDEX 01 11:40:24
  TRACK 527 AUDIO
    TITLE "LR_black_phrase_E_04_527"
    INDEX 01 11:42:15
  TRACK 528 AUDIO
    TITLE "LR_black_phrase_E_04_528"
    INDEX 01 11:42:70
  TRACK 529 AUDIO
    TITLE "LR_black_phrase_E_04_529"
    INDEX 01 11:44:59
  TRACK 530 AUDIO
    TITLE "LR_black_phrase_E_04_530"
    INDEX 01 11:45:65
  TRACK 531 AUDIO
    TITLE "LR_black_phrase_E_04_531"
    INDEX 01 11:47:20
  TRACK 532 AUDIO
    TITLE "LR_black_phrase_E_04_532"
    INDEX 01 11:47:50
  TRACK 533 AUDIO
    TITLE "LR_black_phrase_E_04_533"
    INDEX 01 11:49:72
  TRACK 534 AUDIO
    TITLE "LR_black_phrase_E_04_534"
    INDEX 01 11:50:52
  TRACK 535 AUDIO
    TITLE "LR_black_phrase_E_04_535"
    INDEX 01 11:52:74
  TRACK 536 AUDIO
    TITLE "LR_black_phrase_E_04_536"
    INDEX 01 11:54:05
  TRACK 537 AUDIO
    TITLE "LR_black_phrase_E_04_537"
    INDEX 01 11:55:18
  TRACK 538 AUDIO
    TITLE "LR_black_phrase_E_04_538"
    INDEX 01 11:55:47
  TRACK 539 AUDIO
    TITLE "LR_black_phrase_E_04_539"
    INDEX 01 11:57:27
  TRACK 540 AUDIO
    TITLE "LR_black_phrase_E_04_540"
    INDEX 01 11:58:07
  TRACK 541 AUDIO
    TITLE "LR_black_phrase_E_04_541"
    INDEX 01 11:59:61
  TRACK 542 AUDIO
    TITLE "LR_black_phrase_E_04_542"
    INDEX 01 12:00:62
  TRACK 543 AUDIO
    TITLE "LR_black_phrase_E_04_543"
    INDEX 01 12:01:69
  TRACK 544 AUDIO
    TITLE "LR_black_phrase_E_04_544"
    INDEX 01 12:02:20
  TRACK 545 AUDIO
    TITLE "LR_black_phrase_E_04_545"
    INDEX 01 12:05:16
  TRACK 546 AUDIO
    TITLE "LR_black_phrase_E_04_546"
    INDEX 01 12:05:67
  TRACK 547 AUDIO
    TITLE "LR_black_phrase_E_04_547"
    INDEX 01 12:08:64
  TRACK 548 AUDIO
    TITLE "LR_black_phrase_E_04_548"
    INDEX 01 12:09:59
  TRACK 549 AUDIO
    TITLE "LR_black_phrase_E_04_549"
    INDEX 01 12:11:03
  TRACK 550 AUDIO
    TITLE "LR_black_phrase_E_04_550"
    INDEX 01 12:11:25
  TRACK 551 AUDIO
    TITLE "LR_black_phrase_E_04_551"
    INDEX 01 12:13:39
  TRACK 552 AUDIO
    TITLE "LR_black_phrase_E_04_552"
    INDEX 01 12:14:09
  TRACK 553 AUDIO
    TITLE "LR_black_phrase_E_04_553"
    INDEX 01 12:16:24
  TRACK 554 AUDIO
    TITLE "LR_black_phrase_E_04_554"
    INDEX 01 12:17:21
  TRACK 555 AUDIO
    TITLE "LR_black_phrase_E_04_555"
    INDEX 01 12:18:23
  TRACK 556 AUDIO
    TITLE "LR_black_phrase_E_04_556"
    INDEX 01 12:18:44
  TRACK 557 AUDIO
    TITLE "LR_black_phrase_E_04_557"
    INDEX 01 12:20:22
  TRACK 558 AUDIO
    TITLE "LR_black_phrase_E_04_558"
    INDEX 01 12:20:69
  TRACK 559 AUDIO
    TITLE "LR_black_phrase_E_04_559"
    INDEX 01 12:22:44
  TRACK 560 AUDIO
    TITLE "LR_black_phrase_E_04_560"
    INDEX 01 12:23:40
  TRACK 561 AUDIO
    TITLE "LR_black_phrase_E_04_561"
    INDEX 01 12:24:55
  TRACK 562 AUDIO
    TITLE "LR_black_phrase_E_04_562"
    INDEX 01 12:25:05
  TRACK 563 AUDIO
    TITLE "LR_black_phrase_E_04_563"
    INDEX 01 12:27:61
  TRACK 564 AUDIO
    TITLE "LR_black_phrase_E_04_564"
    INDEX 01 12:28:33
  TRACK 565 AUDIO
    TITLE "LR_black_phrase_E_04_565"
    INDEX 01 12:31:12
  TRACK 566 AUDIO
    TITLE "LR_black_phrase_E_04_566"
    INDEX 01 12:32:13
  TRACK 567 AUDIO
    TITLE "LR_black_phrase_E_04_567"
    INDEX 01 12:33:19
  TRACK 568 AUDIO
    TITLE "LR_black_phrase_E_04_568"
    INDEX 01 12:33:42
  TRACK 569 AUDIO
    TITLE "LR_black_phrase_E_04_569"
    INDEX 01 12:35:53
  TRACK 570 AUDIO
    TITLE "LR_black_phrase_E_04_570"
    INDEX 01 12:36:23
  TRACK 571 AUDIO
    TITLE "LR_black_phrase_E_04_571"
    INDEX 01 12:38:31
  TRACK 572 AUDIO
    TITLE "LR_black_phrase_E_04_572"
    INDEX 01 12:39:27
  TRACK 573 AUDIO
    TITLE "LR_black_phrase_E_04_573"
    INDEX 01 12:40:30
  TRACK 574 AUDIO
    TITLE "LR_black_phrase_E_04_574"
    INDEX 01 12:40:46
  TRACK 575 AUDIO
    TITLE "LR_black_phrase_E_04_575"
    INDEX 01 12:42:53
  TRACK 576 AUDIO
    TITLE "LR_black_phrase_E_04_576"
    INDEX 01 12:43:21
  TRACK 577 AUDIO
    TITLE "LR_black_phrase_E_04_577"
    INDEX 01 12:45:28
  TRACK 578 AUDIO
    TITLE "LR_black_phrase_E_04_578"
    INDEX 01 12:46:25
  TRACK 579 AUDIO
    TITLE "LR_black_phrase_E_04_579"
    INDEX 01 12:47:34
  TRACK 580 AUDIO
    TITLE "LR_black_phrase_E_04_580"
    INDEX 01 12:47:52
  TRACK 581 AUDIO
    TITLE "LR_black_phrase_E_04_581"
    INDEX 01 12:50:07
  TRACK 582 AUDIO
    TITLE "LR_black_phrase_E_04_582"
    INDEX 01 12:50:58
  TRACK 583 AUDIO
    TITLE "LR_black_phrase_E_04_583"
    INDEX 01 12:53:10
  TRACK 584 AUDIO
    TITLE "LR_black_phrase_E_04_584"
    INDEX 01 12:54:07
  TRACK 585 AUDIO
    TITLE "LR_black_phrase_E_04_585"
    INDEX 01 12:55:04
  TRACK 586 AUDIO
    TITLE "LR_black_phrase_E_04_586"
    INDEX 01 12:55:24
  TRACK 587 AUDIO
    TITLE "LR_black_phrase_E_04_587"
    INDEX 01 12:57:46
  TRACK 588 AUDIO
    TITLE "LR_black_phrase_E_04_588"
    INDEX 01 12:58:19
  TRACK 589 AUDIO
    TITLE "LR_black_phrase_E_04_589"
    INDEX 01 13:00:41
  TRACK 590 AUDIO
    TITLE "LR_black_phrase_E_04_590"
    INDEX 01 13:01:34
  TRACK 591 AUDIO
    TITLE "LR_black_phrase_E_04_591"
    INDEX 01 13:02:42
  TRACK 592 AUDIO
    TITLE "LR_black_phrase_E_04_592"
    INDEX 01 13:02:67
  TRACK 593 AUDIO
    TITLE "LR_black_phrase_E_04_593"
    INDEX 01 13:05:22
  TRACK 594 AUDIO
    TITLE "LR_black_phrase_E_04_594"
    INDEX 01 13:05:69
  TRACK 595 AUDIO
    TITLE "LR_black_phrase_E_04_595"
    INDEX 01 13:08:25
  TRACK 596 AUDIO
    TITLE "LR_black_phrase_E_04_596"
    INDEX 01 13:09:20
  TRACK 597 AUDIO
    TITLE "LR_black_phrase_E_04_597"
    INDEX 01 13:10:35
  TRACK 598 AUDIO
    TITLE "LR_black_phrase_E_04_598"
    INDEX 01 13:10:57
  TRACK 599 AUDIO
    TITLE "LR_black_phrase_E_04_599"
    INDEX 01 13:12:52
  TRACK 600 AUDIO
    TITLE "LR_black_phrase_E_04_600"
    INDEX 01 13:13:22
  TRACK 601 AUDIO
    TITLE "LR_black_phrase_E_04_601"
    INDEX 01 13:15:17
